<svg xmlns="http://www.w3.org/2000/svg" width="1600" height="1000" viewBox="0 0 1600 1000">
  <defs>
    <linearGradient id="bg" x1="0" y1="0" x2="1" y2="1"><stop offset="0" stop-color="#070c14"/><stop offset="1" stop-color="#101825"/></linearGradient>
    <linearGradient id="banner" x1="0" y1="0" x2="1" y2="1"><stop offset="0" stop-color="#162552"/><stop offset=".55" stop-color="#112545"/><stop offset="1" stop-color="#0d3134"/></linearGradient>
    <filter id="shadow"><feDropShadow dx="0" dy="12" stdDeviation="18" flood-color="#000" flood-opacity=".35"/></filter>
    <style>
      text{font-family:Inter,Segoe UI,Arial,sans-serif}.h1{font-size:38px;font-weight:850;fill:#f7faff}.h2{font-size:21px;font-weight:800;fill:#f4f8ff}.body{font-size:14px;fill:#9eb0c3}.small{font-size:12px;fill:#8fa2b8}.nav{font-size:15px;fill:#a9bbcf}.eyebrow{font-size:11px;font-weight:850;letter-spacing:1.5px;fill:#6f8298}.pill{font-size:11px;font-weight:800}.step{font-size:14px;font-weight:800;fill:#eef5ff}.metric{font-size:30px;font-weight:850;fill:#fff}.mono{font-family:Consolas,monospace;font-size:11px;fill:#8093a9}
    </style>
  </defs>
  <rect width="1600" height="1000" fill="#050a11"/>
  <rect x="28" y="26" width="1544" height="948" rx="22" fill="url(#bg)" stroke="#25374a" filter="url(#shadow)"/>

  <!-- nav -->
  <rect x="28" y="26" width="225" height="948" rx="22" fill="#080f19"/>
  <circle cx="70" cy="72" r="18" fill="#7256ff"/><text x="70" y="78" text-anchor="middle" font-size="13" font-weight="900" fill="#fff">TC</text>
  <text x="100" y="78" font-size="18" font-weight="850" fill="#fff">TraderCockpit</text>
  <text x="52" y="126" class="eyebrow">WORKSPACES</text>
  <rect x="44" y="150" width="190" height="44" rx="8" fill="#10273d" stroke="#2a97d2"/>
  <text x="80" y="178" class="nav" fill="#e2f5ff">Home</text>
  <text x="52" y="227" class="nav">◇</text><text x="80" y="227" class="nav">Research</text>
  <text x="52" y="272" class="nav">⌕</text><text x="80" y="272" class="nav">Explore</text>
  <text x="52" y="317" class="nav">◔</text><text x="80" y="317" class="nav">Automation</text>
  <text x="52" y="362" class="nav">●</text><text x="80" y="362" class="nav">Operate</text>
  <text x="52" y="407" class="nav">⚙</text><text x="80" y="407" class="nav">Settings</text>
  <text x="52" y="850" class="eyebrow">CURRENT READINESS</text>
  <rect x="45" y="872" width="176" height="30" rx="15" fill="#09261f" stroke="#2c7862"/><circle cx="62" cy="887" r="4" fill="#44e2a0"/><text x="75" y="891" class="small" fill="#a5efd1">App ready</text>
  <rect x="45" y="910" width="176" height="30" rx="15" fill="#271f0e" stroke="#7a622b"/><circle cx="62" cy="925" r="4" fill="#ffc857"/><text x="75" y="929" class="small" fill="#f6db9f">SQX needs setup</text>

  <!-- top bar -->
  <rect x="253" y="26" width="1319" height="72" fill="#07101a"/>
  <text x="290" y="54" class="eyebrow">TRADERCOCKPIT / PERSONAL WORKSPACE</text>
  <text x="290" y="78" font-size="15" font-weight="700" fill="#cbd7e4">Continue where you left off</text>
  <rect x="1265" y="46" width="112" height="30" rx="15" fill="#0c2922" stroke="#2e7a65"/><circle cx="1281" cy="61" r="4" fill="#44e2a0"/><text x="1293" y="65" class="small" fill="#a5efd1">App ready</text>
  <rect x="1387" y="46" width="158" height="30" rx="15" fill="#261f0e" stroke="#76612b"/><circle cx="1403" cy="61" r="4" fill="#ffc857"/><text x="1415" y="65" class="small" fill="#f5d99b">Research runtime setup</text>

  <!-- header -->
  <text x="300" y="150" class="eyebrow">HOME</text>
  <text x="300" y="194" class="h1">Command Center</text>
  <text x="300" y="224" class="body">Lead with what the product can actually do. Keep producer readiness visible without letting unavailable systems define the application.</text>

  <!-- main banner -->
  <rect x="300" y="255" width="1240" height="190" rx="16" fill="url(#banner)" stroke="#2c4b6f"/>
  <text x="332" y="291" class="eyebrow" fill="#91a4d8">ACTIVE RESEARCH</text>
  <text x="332" y="331" font-size="27" font-weight="850" fill="#fff">Opening-range breakout — Builder configuration ready for review</text>
  <text x="332" y="361" class="body" fill="#b3c5d9">Idea revision 08 · ES 5m · Genetic Evolution · 3 unresolved native checks</text>
  <rect x="332" y="385" width="150" height="36" rx="7" fill="#2e9be0"/><text x="407" y="408" text-anchor="middle" font-size="12" font-weight="850" fill="#fff">Continue Research</text>
  <rect x="492" y="385" width="138" height="36" rx="7" fill="#13263a" stroke="#476078"/><text x="561" y="408" text-anchor="middle" font-size="12" font-weight="800" fill="#d8e3ee">Open last Proof</text>
  <rect x="1310" y="294" width="185" height="108" rx="12" fill="#0a1725" stroke="#34526a"/>
  <text x="1330" y="322" class="eyebrow">TODAY</text><text x="1330" y="355" class="metric">1</text><text x="1364" y="355" class="small">active research</text>
  <text x="1330" y="385" class="small">2 recent proofs · 0 live deployments</text>

  <!-- workflow -->
  <text x="300" y="486" class="eyebrow">RESEARCH FLOW</text>
  <g>
    <rect x="300" y="505" width="165" height="88" rx="11" fill="#102037" stroke="#4d64a9"/><circle cx="325" cy="531" r="10" fill="#785cff"/><text x="325" y="535" text-anchor="middle" font-size="10" font-weight="900" fill="#fff">1</text><text x="345" y="536" class="step">Idea</text><text x="325" y="566" class="small">Saved · rev 08</text>
    <path d="M465 549 H485" stroke="#556a82" stroke-width="3"/>
    <rect x="485" y="505" width="165" height="88" rx="11" fill="#102037" stroke="#4d64a9"/><circle cx="510" cy="531" r="10" fill="#785cff"/><text x="510" y="535" text-anchor="middle" font-size="10" font-weight="900" fill="#fff">2</text><text x="530" y="536" class="step">Specification</text><text x="510" y="566" class="small">Ready to inspect</text>
    <path d="M650 549 H670" stroke="#556a82" stroke-width="3"/>
    <rect x="670" y="505" width="165" height="88" rx="11" fill="#16322d" stroke="#3a9b7a"/><circle cx="695" cy="531" r="10" fill="#42d79b"/><text x="695" y="535" text-anchor="middle" font-size="10" font-weight="900" fill="#07150f">3</text><text x="715" y="536" class="step">Build</text><text x="695" y="566" class="small" fill="#a8ddca">Current step</text>
    <path d="M835 549 H855" stroke="#556a82" stroke-width="3"/>
    <rect x="855" y="505" width="165" height="88" rx="11" fill="#0e1825" stroke="#2b3b4d"/><circle cx="880" cy="531" r="10" fill="#2b3d52"/><text x="880" y="535" text-anchor="middle" font-size="10" font-weight="900" fill="#c8d4df">4</text><text x="900" y="536" class="step">Candidates</text><text x="880" y="566" class="small">Waiting</text>
    <path d="M1020 549 H1040" stroke="#556a82" stroke-width="3"/>
    <rect x="1040" y="505" width="165" height="88" rx="11" fill="#0e1825" stroke="#2b3b4d"/><circle cx="1065" cy="531" r="10" fill="#2b3d52"/><text x="1065" y="535" text-anchor="middle" font-size="10" font-weight="900" fill="#c8d4df">5</text><text x="1085" y="536" class="step">Backtest</text><text x="1065" y="566" class="small">Waiting</text>
    <path d="M1205 549 H1225" stroke="#556a82" stroke-width="3"/>
    <rect x="1225" y="505" width="145" height="88" rx="11" fill="#0e1825" stroke="#2b3b4d"/><text x="1248" y="536" class="step">Robustness</text><text x="1248" y="566" class="small">Waiting</text>
    <path d="M1370 549 H1390" stroke="#556a82" stroke-width="3"/>
    <rect x="1390" y="505" width="150" height="88" rx="11" fill="#0e1825" stroke="#2b3b4d"/><text x="1415" y="536" class="step">Proof</text><text x="1415" y="566" class="small">Waiting</text>
  </g>

  <!-- capability cards -->
  <text x="300" y="636" class="eyebrow">WHAT YOU CAN DO NOW</text>
  <rect x="300" y="655" width="390" height="148" rx="13" fill="#0d1825" stroke="#29465e"/>
  <rect x="320" y="677" width="88" height="26" rx="13" fill="#102c3d" stroke="#2f728f"/><text x="364" y="694" text-anchor="middle" class="pill" fill="#a8e9ff">RESEARCH</text>
  <text x="320" y="733" class="h2">Construct and run native research</text><text x="320" y="758" class="small">Idea · native specification · Builder · Candidates · Retester · Proof</text><text x="320" y="785" class="small" fill="#83d8ff">Open Research →</text>

  <rect x="710" y="655" width="390" height="148" rx="13" fill="#0d1825" stroke="#29465e"/>
  <rect x="730" y="677" width="110" height="26" rx="13" fill="#1d2511" stroke="#6b7832"/><text x="785" y="694" text-anchor="middle" class="pill" fill="#e1e998">RUNTIME</text>
  <text x="730" y="733" class="h2">Connect StrategyQuant X</text><text x="730" y="758" class="small">Verify installed build, launcher, projects, presets and exact producer readiness.</text><text x="730" y="785" class="small" fill="#e1c36f">Finish setup →</text>

  <rect x="1120" y="655" width="420" height="148" rx="13" fill="#0d1825" stroke="#29465e"/>
  <rect x="1140" y="677" width="86" height="26" rx="13" fill="#22182a" stroke="#7f5b8b"/><text x="1183" y="694" text-anchor="middle" class="pill" fill="#e4b6f0">PROOF</text>
  <text x="1140" y="733" class="h2">Review exact evidence</text><text x="1140" y="758" class="small">Configuration, native job, candidate, Retester result and validation ancestry.</text><text x="1140" y="785" class="small" fill="#dcb3ef">View recent proofs →</text>

  <!-- operational readiness -->
  <text x="300" y="846" class="eyebrow">OPERATIONAL READINESS — TRUTHFUL, SECONDARY UNTIL CONNECTED</text>
  <rect x="300" y="866" width="1240" height="78" rx="12" fill="#0a131d" stroke="#233547"/>
  <circle cx="334" cy="905" r="7" fill="#ffc857"/><text x="352" y="900" font-size="13" font-weight="800" fill="#e8eef5">Market data</text><text x="352" y="919" class="small">Not configured</text>
  <line x1="530" y1="884" x2="530" y2="927" stroke="#263646"/>
  <circle cx="568" cy="905" r="7" fill="#44e2a0"/><text x="586" y="900" font-size="13" font-weight="800" fill="#e8eef5">Application</text><text x="586" y="919" class="small">Ready</text>
  <line x1="760" y1="884" x2="760" y2="927" stroke="#263646"/>
  <circle cx="798" cy="905" r="7" fill="#ffc857"/><text x="816" y="900" font-size="13" font-weight="800" fill="#e8eef5">SQX runtime</text><text x="816" y="919" class="small">Needs setup</text>
  <line x1="1010" y1="884" x2="1010" y2="927" stroke="#263646"/>
  <circle cx="1048" cy="905" r="7" fill="#74879c"/><text x="1066" y="900" font-size="13" font-weight="800" fill="#e8eef5">Account / model</text><text x="1066" y="919" class="small">Not configured</text>
  <line x1="1282" y1="884" x2="1282" y2="927" stroke="#263646"/>
  <circle cx="1320" cy="905" r="7" fill="#74879c"/><text x="1338" y="900" font-size="13" font-weight="800" fill="#e8eef5">Live operate</text><text x="1338" y="919" class="small">Unavailable until producers exist</text>
</svg>